<svg width="133" height="40" viewBox="0 0 133 40" fill="none" xmlns="http://www.w3.org/2000/svg">
<path d="M0 25C0 11.1929 11.1929 0 25 0H129.727C131.384 0 132.727 1.34315 132.727 3V15C132.727 28.8071 121.534 40 107.727 40H3.00001C1.34315 40 0 38.6569 0 37V25Z" fill="#FFC700"/>
<path d="M34.8774 17.9908C34.2283 17.9908 33.6851 18.2128 33.2477 18.657C32.8173 19.1011 32.5747 19.6682 32.52 20.3584H37.1835C37.1494 19.6546 36.9205 19.084 36.4968 18.6467C36.08 18.2094 35.5402 17.9908 34.8774 17.9908ZM37.2245 23.6382H39.9714C39.8074 24.7178 39.2676 25.589 38.352 26.2518C37.4432 26.9078 36.3123 27.2357 34.9594 27.2357C33.2717 27.2357 31.9461 26.7301 30.9826 25.7188C30.026 24.7075 29.5477 23.3205 29.5477 21.5576C29.5477 19.8015 30.026 18.4007 30.9826 17.3553C31.9392 16.303 33.2272 15.7769 34.8467 15.7769C36.4387 15.7769 37.7062 16.2757 38.6492 17.2733C39.5921 18.2709 40.0636 19.6067 40.0636 21.2808V22.193H32.4893V22.3775C32.4893 23.1633 32.7182 23.8022 33.176 24.2942C33.6406 24.7793 34.2522 25.0219 35.0106 25.0219C35.5573 25.0219 36.0288 24.8989 36.4251 24.6529C36.8214 24.4001 37.0879 24.0618 37.2245 23.6382ZM43.5382 17.9805H41.3038L42.0725 12.2101H44.9116L43.5382 17.9805ZM47.0332 27V12.2101H50.0261V27H47.0332ZM61.0647 25.7188C60.0876 26.7301 58.762 27.2357 57.0879 27.2357C55.4138 27.2357 54.0882 26.7267 53.1111 25.7086C52.134 24.6905 51.6455 23.2863 51.6455 21.4961C51.6455 19.7263 52.1374 18.3324 53.1214 17.3143C54.1122 16.2893 55.4343 15.7769 57.0879 15.7769C58.7483 15.7769 60.0705 16.2893 61.0544 17.3143C62.0384 18.3324 62.5304 19.7263 62.5304 21.4961C62.5304 23.2931 62.0418 24.7007 61.0647 25.7188ZM57.0879 24.9501C57.8259 24.9501 58.4101 24.6495 58.8406 24.0482C59.271 23.4469 59.4863 22.5996 59.4863 21.5063C59.4863 20.4267 59.271 19.5828 58.8406 18.9747C58.4101 18.3666 57.8259 18.0625 57.0879 18.0625C56.3499 18.0625 55.7623 18.3666 55.325 18.9747C54.8945 19.5828 54.6793 20.4267 54.6793 21.5063C54.6793 22.5996 54.8945 23.4469 55.325 24.0482C55.7555 24.6495 56.3431 24.9501 57.0879 24.9501ZM64.078 27V16.0126H66.9684V17.9703H67.0299C67.3305 17.2733 67.7678 16.7403 68.3418 16.3713C68.9226 15.9955 69.6298 15.8076 70.4634 15.8076C71.6797 15.8076 72.6192 16.1698 73.282 16.8941C73.9448 17.6184 74.2762 18.6262 74.2762 19.9176V27H71.2834V20.5429C71.2834 19.8186 71.1125 19.2617 70.7709 18.8722C70.4292 18.4827 69.927 18.288 69.2642 18.288C68.6014 18.288 68.0685 18.5101 67.6653 18.9542C67.269 19.3983 67.0709 19.9791 67.0709 20.6966V27H64.078ZM79.2882 26.6413C78.967 26.9624 78.5775 27.123 78.1197 27.123C77.6619 27.123 77.2724 26.9624 76.9513 26.6413C76.6301 26.3201 76.4696 25.9306 76.4696 25.4728C76.4696 25.015 76.6301 24.6255 76.9513 24.3044C77.2724 23.9833 77.6619 23.8227 78.1197 23.8227C78.5775 23.8227 78.967 23.9833 79.2882 24.3044C79.6093 24.6255 79.7699 25.015 79.7699 25.4728C79.7699 25.9306 79.6093 26.3201 79.2882 26.6413ZM92.1614 16.0126V27H89.2711V25.0219H89.2096C88.6356 26.4773 87.539 27.205 85.9195 27.205C84.7169 27.205 83.7569 26.8394 83.0395 26.1083C82.322 25.3703 81.9633 24.3659 81.9633 23.095V16.0126H84.9561V22.4698C84.9561 23.2009 85.1303 23.7578 85.4788 24.1404C85.8341 24.5231 86.3432 24.7144 87.006 24.7144C87.6688 24.7144 88.1949 24.4957 88.5844 24.0584C88.9739 23.6211 89.1686 23.0369 89.1686 22.3058V16.0126H92.1614ZM93.9038 27V25.2986L99.377 18.3597V18.2982H93.9858V16.0126H102.852V17.9088L97.7064 24.6529V24.7041H102.975V27H93.9038Z" fill="#5B4906"/>
</svg>
